PathFileType	4	(X/Y/Z)	C:/Users/beibeiliu/ov580/test_trc/User2\sequence.40_training_dense_right.trc
DataRate	CameraRate	NumFrames	NumMarkers	Units	OrigDataRate	OrigDataStartFrame	OrigNumFrames
120	120	10	19	mm	120	57	198
Frame#	Time	ThumbCMC			ThumbMCP			ThumbIP			ThumbTip			IndexMCP			IndexPIP			IndexTip			MiddleMCP			MiddlePIP			MiddleTip			RingMCP			RingPIP			RingTip			PinkyMCP			PinkyPIP			PinkyTip			BackHand1			BackHand2			BackHand3	
		X0	Y0	Z0	X1	Y1	Z1	X2	Y2	Z2	X3	Y3	Z3	X4	Y4	Z4	X5	Y5	Z5	X6	Y6	Z6	X7	Y7	Z7	X8	Y8	Z8	X9	Y9	Z9	X10	Y10	Z10	X11	Y11	Z11	X12	Y12	Z12	X13	Y13	Z13	X14	Y14	Z14	X15	Y15	Z15	X16	Y16	Z16	X17	Y17	Z17	X18	Y18	Z18	
56	0.466667	96.6544	46.1081	-4.66674	88.875	64.9942	-31.2975	75.2391	68.0485	-61.9344	58.9895	58.0961	-82.3875	60.32	30.6027	-79.1485	33.1322	36.8478	-70.1072	48.4745	37.9548	-35.382	52.3373	10.8131	-75.4313	24.2427	17.6475	-55.9447	49.4048	23.6703	-24.3198	42.9411	-4.93701	-62.3457	22.6653	4.59434	-37.8302	51.8095	6.79159	-17.236	40.5654	-18.3728	-48.3341	27.6937	-4.66423	-20.3841	58.4136	-4.64644	-7.14389	97.7813	-19.2477	-31.892	112.388	-17.3868	-0.0583453	112.415	16.3865	-21.1775	
57	0.475	101.673	48.7975	-5.12954	97.6649	66.9445	-35.1695	84.773	73.743	-68.1187	69.5759	64.7329	-83.3769	66.0304	35.006	-80.2603	35.3965	37.3255	-68.7513	54.0361	37.1649	-36.3547	54.768	10.7126	-75.6643	27.3832	22.114	-53.8231	53.4018	23.2246	-25.0008	45.0633	-6.08877	-62.2654	25.8434	7.45751	-40.2949	57.3817	12.9894	-19.6398	39.5813	-18.6996	-48.4467	32.3542	0.402951	-23.9688	64.9399	-1.17831	-8.92259	101.993	-14.6911	-33.3255	113.78	-16.4948	-3.24365	115.82	16.8382	-22.1202	
58	0.483333	105.181	50.5877	-9.37492	101.131	70.3926	-33.5527	91.613	79.7	-65.6915	74.7	69.4831	-88.0985	68.5443	35.1598	-80.1372	38.5213	43.2945	-67.674	56.2142	42.5508	-37.4125	59.5228	13.5344	-76.1499	30.1029	22.3547	-52.5773	59.2127	29.775	-24.85	48.372	0.964332	-63.7847	30.2911	9.52473	-37.875	58.9266	14.5193	-19.212	43.7896	-16.3074	-48.1802	34.8445	2.08527	-21.7335	65.1105	1.72397	-6.62946	102.634	-15.2907	-31.7734	117.859	-13.924	1.42952	119.934	19.6742	-21.2695	
59	0.491667	105.395	52.3731	-9.60841	100.943	73.515	-36.7823	85.7211	72.3722	-68.5019	71.3625	70.0235	-88.4048	69.3553	39.6695	-81.2612	39.918	42.247	-69.347	57.2607	41.1691	-36.6338	56.2781	16.0149	-76.0637	30.807	25.8474	-52.8678	56.3291	30.1618	-23.7947	46.8068	-0.563072	-62.2607	30.2447	11.7571	-37.0219	60.1937	14.1671	-17.4699	46.2117	-16.0056	-47.1843	34.8043	2.34573	-20.6736	63.8974	5.51087	-8.49213	103.033	-11.7105	-36.6399	120.401	-11.0518	-0.236893	122.274	20.8672	-22.1211	
60	0.5	104.435	58.5997	-7.64005	93.0236	71.0935	-35.0189	76.4502	74.867	-66.4904	59.5112	69.122	-88.1089	64.5564	38.2196	-81.6416	37.0781	45.8072	-65.0458	56.8803	48.5744	-34.7539	58.5441	19.146	-75.4172	30.2829	30.3978	-54.4032	59.8479	31.1768	-21.3939	42.8273	1.62847	-60.1258	30.6398	13.1469	-35.9703	62.0128	16.0329	-16.8707	45.3917	-15.0813	-45.0734	37.6071	8.1838	-20.7066	62.7448	6.30594	-4.39647	104.265	-11.2591	-35.8116	120.89	-9.2217	-2.62278	121.091	24.0297	-26.2499	
61	0.508333	99.444	59.8597	-9.09659	83.4316	79.3796	-30.9072	62.2516	78.5153	-62.0409	46.2957	67.2723	-77.6061	65.015	43.1369	-77.9171	33.3795	44.1868	-63.2288	50.2253	51.7217	-34.6923	54.9159	18.7202	-71.2965	26.8663	32.4692	-49.3456	53.8567	36.8178	-20.7145	43.6654	6.74561	-58.6908	27.473	16.4833	-35.7629	58.4067	19.6503	-14.2816	42.8426	-8.29904	-45.0386	32.9011	5.43034	-19.2094	65.9666	11.341	-4.0145	101.048	-7.37368	-36.1042	119.428	-6.29158	-4.01947	119.12	31.01	-24.3818	
62	0.516667	97.0069	63.608	-5.38152	75.7287	79.2931	-26.1898	51.9948	78.9023	-57.0882	35.2001	70.8058	-72.3279	62.0749	43.9502	-74.5465	32.1598	46.3557	-64.4757	48.1739	54.8683	-31.0434	47.7471	23.8159	-71.9349	24.5689	34.3844	-48.2511	53.7309	36.4101	-17.4695	42.5198	5.98531	-56.1135	27.1452	21.7656	-30.5734	61.0505	22.3539	-12.1616	42.0095	-10.1727	-43.0943	32.6673	9.99804	-16.461	63.6065	14.4131	-4.4931	101.379	-3.17233	-33.1945	119.515	-5.72631	-1.56748	115.131	31.6537	-23.4292	
63	0.525	94.5122	66.0167	-4.85881	71.4018	80.5987	-23.8356	46.7656	83.1072	-50.1941	27.2252	70.2681	-68.6234	60.5565	47.154	-73.201	29.682	55.9983	-60.6864	48.6556	53.2706	-28.7772	49.905	26.4901	-69.6644	23.6628	35.2278	-49.5798	52.2658	37.9123	-14.6122	42.286	8.54356	-55.2731	25.533	19.8473	-30.4959	55.3606	23.9582	-11.3152	41.5185	-6.74011	-42.2592	31.2526	12.1318	-18.9844	59.5625	16.1437	-0.888266	100.56	-1.58607	-36.287	118.528	-2.37674	-0.7124	114.878	35.9221	-22.2746	
64	0.533333	94.7145	65.948	1.86428	67.0706	83.5278	-22.4404	41.3122	85.3873	-42.9944	23.9114	67.6292	-62.0755	62.953	55.3482	-73.326	29.9877	58.9453	-58.2605	47.6494	55.5686	-27.6038	50.9148	33.4546	-70.7096	23.3758	36.6538	-48.3449	46.2696	43.5973	-15.8478	42.0648	12.6775	-56.6234	24.6982	22.9299	-28.1474	52.658	28.595	-11.3767	41.5688	-1.75066	-43.368	30.6501	14.7663	-16.4041	57.6588	16.9056	1.19619	99.2415	-0.370214	-35.775	118.562	-1.60195	-2.0023	115.58	35.382	-19.4583	
65	0.541667	91.6558	68.0309	1.94546	62.4158	79.6832	-15.3762	35.3248	82.2314	-37.5857	18.0295	65.2972	-52.981	62.9071	55.4777	-71.9657	30.7223	54.3942	-59.591	43.4708	55.5501	-28.4307	47.9305	30.6279	-71.2001	22.7404	37.4627	-49.7344	42.6013	44.1743	-16.6437	40.8129	16.79	-57.4403	24.5606	26.164	-33.2211	54.2853	31.0294	-11.8681	40.6798	0.0984345	-43.8196	30.5736	14.2538	-14.8112	56.3811	18.8927	-1.52562	101.197	1.64823	-32.7478	118.365	1.88859	0.117956	116.37	35.4167	-21.6809	
